<?xml version="1.0" standalone="no"?>
<!DOCTYPE svg PUBLIC "-//W3C//DTD SVG 20010904//EN"
 "http://www.w3.org/TR/2001/REC-SVG-20010904/DTD/svg10.dtd">
<svg version="1.0" xmlns="http://www.w3.org/2000/svg"
 width="393.000000pt" height="393.000000pt" viewBox="0 0 393.000000 393.000000"
 preserveAspectRatio="xMidYMid meet">
<metadata>
Created by potrace 1.11, written by Peter Selinger 2001-2013
</metadata>
<g transform="translate(0.000000,393.000000) scale(0.100000,-0.100000)"
fill="#000000" stroke="none">
<path d="M1110 2965 c-11 -26 -20 -48 -20 -50 0 -2 -38 -100 -84 -217 -47
-117 -163 -414 -259 -659 -97 -245 -190 -475 -207 -511 -58 -119 -135 -201
-200 -215 -20 -3 -26 -11 -26 -34 l-2 -29 294 0 294 0 0 30 c0 30 -1 30 -55
30 -62 0 -97 14 -135 55 -48 52 -38 199 29 397 l28 83 293 0 293 0 83 -243
c68 -197 82 -247 74 -267 -7 -18 -17 -25 -35 -25 -21 0 -25 -5 -25 -30 l0 -30
238 0 c131 0 241 2 244 5 3 3 3 16 1 29 -4 17 -14 26 -34 30 -49 10 -106 72
-155 170 -25 52 -152 401 -293 806 l-249 715 -36 3 c-35 3 -37 1 -56 -43z m50
-570 c39 -115 91 -266 115 -335 l43 -125 -251 -3 c-137 -1 -252 0 -255 2 -2 3
56 158 129 345 73 187 136 337 140 333 4 -4 39 -101 79 -217z"/>
<path d="M2020 2912 c0 -28 3 -30 49 -35 66 -8 107 -30 128 -70 17 -30 18 -81
18 -712 0 -638 -1 -682 -18 -713 -21 -39 -84 -71 -139 -72 -36 0 -38 -2 -38
-31 l0 -31 368 4 c410 5 424 7 567 78 173 85 313 249 345 407 19 88 10 199
-20 258 -44 86 -156 135 -339 149 -35 3 -65 7 -68 9 -2 3 20 20 49 38 140 90
245 206 285 316 55 151 9 323 -100 380 -82 43 -122 46 -614 50 l-473 4 0 -29z
m762 -55 c26 -11 68 -40 93 -65 81 -79 116 -168 120 -303 3 -84 0 -103 -20
-146 -27 -60 -52 -85 -114 -114 -41 -20 -65 -23 -222 -27 l-175 -4 0 310 0
310 36 21 c79 44 200 52 282 18z m-44 -734 c140 -37 240 -129 296 -273 42
-111 28 -295 -31 -385 -60 -92 -133 -129 -253 -129 -99 0 -162 18 -235 68
l-50 33 -1 352 -1 352 110 -2 c60 -1 134 -8 165 -16z"/>
</g>
</svg>
