<?xml version="1.0" standalone="no"?>
<!DOCTYPE svg PUBLIC "-//W3C//DTD SVG 20010904//EN"
 "http://www.w3.org/TR/2001/REC-SVG-20010904/DTD/svg10.dtd">
<svg version="1.0" xmlns="http://www.w3.org/2000/svg"
 width="406.000000pt" height="406.000000pt" viewBox="0 0 406.000000 406.000000"
 preserveAspectRatio="xMidYMid meet">
<metadata>
Created by potrace 1.11, written by Peter Selinger 2001-2013
</metadata>
<g transform="translate(0.000000,406.000000) scale(0.100000,-0.100000)"
fill="#000000" stroke="none">
<path d="M1405 3240 c3 -5 35 -24 70 -42 36 -17 65 -35 65 -40 0 -4 6 -8 14
-8 17 0 173 -146 211 -199 17 -23 40 -54 52 -69 13 -15 23 -32 23 -39 0 -6 4
-13 8 -15 16 -6 91 -166 126 -266 19 -56 54 -178 77 -270 36 -148 99 -371 116
-412 3 -8 7 -19 9 -25 5 -23 77 -183 96 -215 60 -100 98 -151 162 -216 77 -77
147 -134 165 -134 6 0 11 -4 11 -10 0 -5 6 -10 14 -10 8 0 16 -4 18 -8 6 -15
150 -74 213 -87 11 -3 31 -8 45 -11 50 -13 234 -16 294 -4 117 22 198 54 296
114 91 56 142 102 213 189 55 67 107 166 136 258 30 95 33 114 37 239 5 163
-30 299 -111 435 -40 68 -49 79 -130 161 -152 153 -333 233 -544 239 -58 2
-128 -1 -156 -6 -27 -5 -59 -11 -70 -13 -116 -20 -263 -101 -378 -206 -67 -61
-71 -37 60 -342 18 -44 32 -39 60 19 30 64 131 157 213 195 97 46 154 58 265
53 143 -6 249 -54 350 -160 97 -101 141 -209 144 -355 6 -243 -164 -461 -403
-519 -124 -30 -297 -1 -405 68 -68 44 -151 136 -193 213 -13 24 -26 45 -30 46
-5 2 -8 12 -8 23 0 10 -3 19 -8 19 -12 0 -39 69 -114 290 -38 113 -70 210 -72
215 -12 40 -71 176 -126 290 -128 267 -312 486 -469 556 -91 41 -107 47 -153
58 -59 14 -201 15 -193 1z"/>
<path d="M927 2794 c-172 -36 -304 -104 -423 -221 -73 -72 -99 -103 -133 -162
-53 -92 -84 -176 -109 -296 -10 -50 -5 -270 7 -307 6 -19 13 -44 15 -55 9 -47
70 -175 110 -233 181 -260 484 -397 786 -356 186 25 351 108 488 243 17 18 32
37 32 42 0 6 -11 34 -24 63 -13 29 -41 97 -62 150 -22 54 -42 98 -46 98 -13 0
-38 -32 -33 -41 4 -5 2 -9 -2 -9 -5 0 -16 -13 -25 -28 -43 -73 -147 -155 -240
-190 -200 -75 -404 -32 -558 118 -112 110 -163 239 -155 395 2 44 6 87 8 95 3
8 8 30 12 48 4 17 12 32 18 32 6 0 7 3 4 6 -13 13 62 126 117 177 45 42 146
107 166 107 9 0 20 3 24 7 14 15 101 31 168 31 191 1 345 -87 463 -263 74
-110 97 -166 215 -515 28 -85 61 -175 72 -200 11 -25 23 -54 28 -65 21 -56
145 -294 187 -357 61 -93 73 -108 156 -191 56 -56 191 -157 211 -157 2 0 17
-5 33 -12 15 -6 30 -12 33 -13 118 -30 225 -39 248 -22 10 8 0 16 -39 34 -140
64 -265 181 -374 348 -103 157 -153 287 -234 610 -75 294 -116 420 -181 553
-103 212 -270 380 -471 474 -144 68 -343 93 -492 62z"/>
</g>
</svg>
