<?xml version="1.0" standalone="no"?>
<!DOCTYPE svg PUBLIC "-//W3C//DTD SVG 20010904//EN"
 "http://www.w3.org/TR/2001/REC-SVG-20010904/DTD/svg10.dtd">
<svg version="1.0" xmlns="http://www.w3.org/2000/svg"
 width="406.000000pt" height="406.000000pt" viewBox="0 0 406.000000 406.000000"
 preserveAspectRatio="xMidYMid meet">
<metadata>
Created by potrace 1.11, written by Peter Selinger 2001-2013
</metadata>
<g transform="translate(0.000000,406.000000) scale(0.100000,-0.100000)"
fill="#000000" stroke="none">
<path d="M1420 3243 c0 -5 12 -16 28 -23 186 -94 343 -258 450 -470 66 -130
106 -246 152 -435 121 -495 217 -714 391 -892 146 -149 318 -235 530 -264 190
-26 433 43 584 167 189 153 283 321 315 563 30 221 -55 473 -217 643 -168 175
-359 258 -598 258 -223 0 -399 -70 -562 -224 -29 -27 -53 -55 -53 -62 0 -8 13
-42 28 -76 16 -35 43 -100 61 -145 18 -46 37 -83 41 -83 4 0 12 12 19 28 24
51 92 130 150 172 116 85 265 123 388 102 165 -30 284 -104 367 -232 69 -104
88 -167 90 -290 0 -92 -3 -115 -28 -183 -60 -165 -183 -280 -361 -338 -64 -21
-248 -16 -313 9 -126 49 -199 109 -281 232 -79 118 -109 185 -185 411 -115
346 -207 553 -326 734 -141 213 -289 333 -469 381 -73 19 -201 30 -201 17z"/>
<path d="M935 2790 c-186 -31 -375 -144 -498 -295 -62 -76 -131 -217 -157
-320 -28 -112 -27 -272 1 -386 62 -244 214 -432 444 -546 216 -108 524 -102
735 15 110 61 230 162 230 194 0 10 -11 43 -23 71 -13 29 -39 91 -58 139 -19
49 -38 88 -44 88 -5 0 -23 -23 -40 -51 -110 -186 -361 -288 -572 -234 -219 56
-369 225 -404 453 -22 146 32 312 137 422 114 120 228 169 390 170 154 0 266
-43 368 -144 107 -105 176 -235 262 -493 167 -502 299 -758 489 -949 110 -111
195 -162 323 -194 77 -20 192 -27 192 -12 0 4 -24 19 -52 34 -207 101 -408
356 -505 638 -29 85 -24 67 -92 334 -50 195 -106 376 -137 446 -74 165 -137
263 -228 359 -61 63 -195 160 -271 196 -99 46 -188 66 -315 70 -69 2 -147 0
-175 -5z"/>
</g>
</svg>
